<?xml version="1.0" encoding="utf-8"?>
<!-- Generator: Adobe Illustrator 16.0.0, SVG Export Plug-In . SVG Version: 6.00 Build 0)  -->
<!DOCTYPE svg PUBLIC "-//W3C//DTD SVG 1.1//EN" "http://www.w3.org/Graphics/SVG/1.1/DTD/svg11.dtd">
<svg version="1.1" id="Layer_2" xmlns="http://www.w3.org/2000/svg" xmlns:xlink="http://www.w3.org/1999/xlink" x="0px" y="0px"
	 width="256px" height="256px" viewBox="472 272 256 256" enable-background="new 472 272 256 256" xml:space="preserve">
<rect x="472" y="272" fill="#EED569" width="256" height="256"/>
<g>
	<circle fill="#434854" cx="600" cy="400" r="96.679"/>
</g>
<g>
	<g>
		<path fill="#84BF56" d="M545.245,344.235c-30.662,30.665-30.7,80.357-0.117,111.07l55.598-55.593L545.245,344.235z"/>
	</g>
	<g>
		<path fill="#EACA44" d="M656.319,344.118c-30.717-30.586-80.407-30.548-111.074,0.117l55.48,55.478L656.319,344.118z"/>
	</g>
	<g>
		<path fill="#3F72D8" d="M545.128,455.306c0.04,0.04,0.079,0.083,0.117,0.122c30.707,30.706,80.489,30.706,111.193,0
			l-55.713-55.715L545.128,455.306z"/>
	</g>
	<g>
		<path fill="#EF4D4D" d="M600.726,399.713l55.713,55.715c30.707-30.706,30.707-80.488,0-111.192c-0.04-0.04-0.08-0.078-0.119-0.117
			L600.726,399.713z"/>
	</g>
</g>
<g opacity="0.2">
	<path fill="#434854" d="M601.012,325.932c45.845,0,83.163,41.742,84.489,93.809c0.024-0.952,0.04-1.908,0.04-2.869
		c0-53.394-37.845-96.677-84.529-96.677s-84.53,43.283-84.53,96.677c0,0.961,0.017,1.917,0.041,2.869
		C517.848,367.674,555.167,325.932,601.012,325.932z"/>
</g>
<g>
	<circle fill="#EAEAEA" stroke="#434854" stroke-width="0.0425" stroke-miterlimit="10" cx="600.844" cy="399.832" r="42.458"/>
	<path fill="#727989" stroke="#434854" stroke-width="0.0425" stroke-miterlimit="10" d="M600.844,442.386
		c-23.466,0-42.554-19.09-42.554-42.555s19.088-42.553,42.554-42.553c23.463,0,42.552,19.088,42.552,42.553
		S624.307,442.386,600.844,442.386z M600.844,357.469c-23.359,0-42.361,19.004-42.361,42.362s19.002,42.36,42.361,42.36
		c23.356,0,42.359-19.002,42.359-42.36S624.2,357.469,600.844,357.469z"/>
</g>
<g opacity="0.3">
	<circle fill="#FFFFFF" cx="600.844" cy="399.832" r="6.368"/>
</g>
<g opacity="0.2">
	<path d="M600.844,381.363c-10.201,0-18.469,8.269-18.469,18.468c0,10.2,8.268,18.47,18.469,18.47c10.199,0,63.44-6.995,63.44-6.995
		S611.043,381.363,600.844,381.363z M600.844,406.199c-3.519,0-6.369-2.852-6.369-6.368c0-3.518,2.852-6.369,6.369-6.369
		c3.516,0,6.368,2.852,6.368,6.369C607.212,403.348,604.359,406.199,600.844,406.199z"/>
</g>
<g>
	<path fill="#434854" d="M600.844,381.363c-10.201,0-18.469,8.269-18.469,18.468c0,10.2,8.268,18.47,18.469,18.47
		c10.199,0,65.127-18.47,65.127-18.47S611.043,381.363,600.844,381.363z M600.844,406.199c-3.519,0-6.369-2.852-6.369-6.368
		c0-3.518,2.852-6.369,6.369-6.369c3.516,0,6.368,2.852,6.368,6.369C607.212,403.348,604.359,406.199,600.844,406.199z"/>
</g>
</svg>
